<svg id="Capa_1" data-name="Capa 1" xmlns="http://www.w3.org/2000/svg" xmlns:xlink="http://www.w3.org/1999/xlink" viewBox="0 0 32 32"><defs><style>.cls-1{fill:#fff;}.cls-2{fill:#99d2f3;}.cls-3{fill:#101135;}.cls-4{clip-path:url(#clip-path);}.cls-5{fill:#b5b5b5;}.cls-6{fill:#c0e0f2;}.cls-7{fill:#ffb30f;}</style><clipPath id="clip-path"><circle class="cls-1" cx="25" cy="25" r="5"/></clipPath></defs><path class="cls-2" d="M25,0H7A7,7,0,0,0,7,14H25A7,7,0,0,0,25,0Z"/><path class="cls-3" d="M25,18H7A7,7,0,0,0,7,32H25a7,7,0,0,0,0-14Z"/><circle class="cls-1" cx="25" cy="25" r="5"/><g class="cls-4"><path class="cls-5" d="M19.77,22c.19-.48,1.18,0,1.18,0l.75-.64A12,12,0,0,0,20.82,23c-.19.5.11.61.27.21s.69-1.79,1.26-1.77,1.44.16,1.44.35a2.82,2.82,0,0,1-.43,1.1c-.18.21.33.59.41.64s.75-.72.75-.8-.3-1.05.69-.91.91,1.1,1.39,1,2.63.43,2.82,1.08-.16,1.39-.54,1a2,2,0,0,1-.61-1.07c0-.21-.35-.21-.43,0s-.08,1.2-.73.94-1.2-1.34-1.42-1.53-.26,1-.75,1.07-1.23.38-1.79.08-1.5-.08-1.18.51,1.1.8,1.72,1.07a1.73,1.73,0,0,1,1.09,1.37c0,.53.3.91-.48,1.07s-1,.88-1.61.64-1.17-.48-.93-.75.16-1.07-.27-.83a.81.81,0,0,1-1.15-.19C20,26.91,19,26,19.08,25.52A11.22,11.22,0,0,1,19.77,22ZM28,21.82c-.29-.05.06.54.14.81s.69.29.86.24.08-.56-.22-.86S28.32,21.88,28,21.82Z"/></g><circle class="cls-1" cx="10.5" cy="29.5" r="0.5"/><circle class="cls-1" cx="6.5" cy="21.5" r="0.5"/><circle class="cls-1" cx="15.5" cy="27.5" r="0.5"/><circle class="cls-1" cx="14.5" cy="24.5" r="0.5"/><path class="cls-6" d="M17.5,3a2.32,2.32,0,0,0-.65.1A3,3,0,0,0,11.17,3,2.5,2.5,0,1,0,13.53,7,2.42,2.42,0,0,0,14,7a3,3,0,0,0,1.31-.31A2.5,2.5,0,1,0,17.5,3Z"/><path class="cls-6" d="M26.22,7.45a1.77,1.77,0,0,0-.46.07,2.12,2.12,0,0,0-4,0,1.77,1.77,0,1,0,1.67,2.79l.34,0a2.06,2.06,0,0,0,.93-.22,1.77,1.77,0,1,0,1.55-2.62Z"/><circle class="cls-7" cx="7" cy="7" r="5"/></svg>