<?xml version="1.0" encoding="utf-8"?>
<!-- Generator: Adobe Illustrator 24.1.1, SVG Export Plug-In . SVG Version: 6.00 Build 0)  -->
<svg version="1.1" id="Capa_1" xmlns="http://www.w3.org/2000/svg" xmlns:xlink="http://www.w3.org/1999/xlink" x="0px" y="0px"
	 viewBox="0 0 313 313" style="enable-background:new 0 0 313 313;" xml:space="preserve">
<g>
	<g>
		<path d="M260.3,171.5c-2.2-0.6-4.5,0-6.4,1.4c-7.2,6.1-15.6,11.1-24.8,14.5c-8.6,3.3-18.1,5-28.1,5c-22.6,0-43.2-9.2-57.9-23.9
			c-14.8-14.8-23.9-35.4-23.9-57.9c0-9.5,1.7-18.7,4.5-27c3.1-8.9,7.5-17,13.4-23.9c2.5-3.1,1.9-7.5-1.1-10
			c-1.9-1.4-4.2-1.9-6.4-1.4c-23.7,6.4-44.3,20.6-59,39.5c-14.2,18.7-22.8,41.8-22.8,67.1c0,30.4,12.3,57.9,32.3,78
			s47.6,32.3,78,32.3c25.6,0,49.3-8.9,68.2-23.7c19.2-15,33.1-36.5,39-61C266.4,176.2,264.2,172.3,260.3,171.5z M217.7,229.7
			c-16.2,12.8-36.8,20.6-59.3,20.6c-26.5,0-50.4-10.9-67.7-28.1c-17.3-17.3-28.1-41.2-28.1-67.7c0-22,7.2-42,19.8-58.2
			c8.6-11.1,19.5-20.3,32-26.7c-1.4,3.1-2.8,6.1-3.9,9.5c-3.6,10-5.3,20.6-5.3,31.7c0,26.5,10.9,50.7,28.1,67.9s41.5,28.1,67.9,28.1
			c11.7,0,22.8-1.9,33.1-5.8c3.6-1.4,7.2-2.8,10.6-4.5C238.3,209.4,229.1,220.8,217.7,229.7z"/>
	</g>
</g>
</svg>
