<svg id="Capa_1" data-name="Capa 1" xmlns="http://www.w3.org/2000/svg" xmlns:xlink="http://www.w3.org/1999/xlink" viewBox="0 0 16 16"><defs><style>.cls-1{fill:#fff;}.cls-2{fill:#99d2f3;}.cls-3{fill:#101135;}.cls-4{clip-path:url(#clip-path);}.cls-5{fill:#b5b5b5;}.cls-6{fill:#c0e0f2;}.cls-7{fill:#ffb30f;}</style><clipPath id="clip-path"><circle class="cls-1" cx="12.5" cy="12.5" r="2.5"/></clipPath></defs><path class="cls-2" d="M12.5,0h-9a3.5,3.5,0,0,0,0,7h9a3.5,3.5,0,0,0,0-7Z"/><path class="cls-3" d="M12.5,9h-9a3.5,3.5,0,0,0,0,7h9a3.5,3.5,0,0,0,0-7Z"/><circle class="cls-1" cx="12.5" cy="12.5" r="2.5"/><g class="cls-4"><path class="cls-5" d="M9.89,11c.09-.24.59,0,.59,0l.37-.32a5.15,5.15,0,0,0-.44.78c-.09.25.05.31.13.1s.35-.89.63-.88.73.08.73.18a1.29,1.29,0,0,1-.22.54c-.09.11.16.3.2.33s.38-.37.38-.41-.15-.52.35-.45.45.55.69.51,1.31.21,1.41.53-.08.7-.27.53a1,1,0,0,1-.31-.54c0-.11-.17-.11-.21,0s0,.6-.36.47-.61-.67-.71-.76-.14.52-.38.53-.61.19-.9,0-.75,0-.58.26.54.4.85.53a.88.88,0,0,1,.55.68c0,.27.15.46-.24.54s-.51.44-.8.32-.59-.24-.47-.37.08-.54-.14-.42a.4.4,0,0,1-.57-.09c-.16-.2-.66-.65-.63-.9A5.84,5.84,0,0,1,9.89,11ZM14,10.91c-.15,0,0,.27.07.4s.35.15.43.12,0-.27-.11-.42S14.16,10.94,14,10.91Z"/></g><circle class="cls-1" cx="5.25" cy="14.75" r="0.25"/><circle class="cls-1" cx="3.25" cy="10.75" r="0.25"/><circle class="cls-1" cx="7.75" cy="13.75" r="0.25"/><circle class="cls-1" cx="7.25" cy="12.25" r="0.25"/><path class="cls-6" d="M8.75,1.5a1.26,1.26,0,0,0-.33.05,1.48,1.48,0,0,0-2.83,0,1.25,1.25,0,1,0,1.17,2L7,3.5a1.46,1.46,0,0,0,.66-.16A1.25,1.25,0,1,0,8.75,1.5Z"/><path class="cls-6" d="M13.11,3.72a.85.85,0,0,0-.23,0,1.05,1.05,0,0,0-2,0,.88.88,0,0,0-.78.87.89.89,0,0,0,1.61.52h.17A1.08,1.08,0,0,0,12.34,5a.88.88,0,0,0,.77.47.89.89,0,1,0,0-1.78Z"/><circle class="cls-7" cx="3.5" cy="3.5" r="2.5"/></svg>