<svg id="Capa_1" data-name="Capa 1" xmlns="http://www.w3.org/2000/svg" viewBox="0 0 64 64"><polygon points="34 6 30 6 30 12 34 12 34 6 34 6"/><polygon points="48.97 12.2 44.73 16.44 47.56 19.27 51.8 15.03 48.97 12.2 48.97 12.2"/><polygon points="58 30 52 30 52 34 58 34 58 30 58 30"/><polygon points="47.56 44.73 44.73 47.56 48.97 51.8 51.8 48.97 47.56 44.73 47.56 44.73"/><polygon points="34 52 30 52 30 58 34 58 34 52 34 52"/><polygon points="16.44 44.73 12.2 48.97 15.03 51.8 19.27 47.56 16.44 44.73 16.44 44.73"/><polygon points="12 30 6 30 6 34 12 34 12 30 12 30"/><polygon points="15.03 12.2 12.2 15.03 16.44 19.27 19.27 16.44 15.03 12.2 15.03 12.2"/><path d="M32,17.58A14.42,14.42,0,1,1,17.58,32,14.44,14.44,0,0,1,32,17.58M32,14A18,18,0,1,0,50,32,18,18,0,0,0,32,14Z"/></svg>