<svg id="Capa_1" data-name="Capa 1" xmlns="http://www.w3.org/2000/svg" viewBox="0 0 16 16"><defs><style>.cls-1{fill:#fff;}</style></defs><path class="cls-1" d="M8,4.5A3.5,3.5,0,1,1,4.5,8,3.5,3.5,0,0,1,8,4.5M8,3a5,5,0,1,0,5,5A5,5,0,0,0,8,3Z"/><path class="cls-1" d="M8.18.82v.36H7.82V.82h.36M9,0H7V2H9V0Z"/><path class="cls-1" d="M13,2.79l.26.26L13,3.31l-.26-.26L13,2.79m0-1.15L11.54,3.05,13,4.46l1.41-1.41L13,1.64Z"/><path class="cls-1" d="M15.18,7.82v.36h-.36V7.82h.36M16,7H14V9h2V7Z"/><path class="cls-1" d="M13,12.69l.26.26-.26.26L12.69,13l.26-.26m0-1.15L11.54,13,13,14.36,14.36,13,13,11.54Z"/><path class="cls-1" d="M8.18,14.82v.36H7.82v-.36h.36M9,14H7v2H9V14Z"/><path class="cls-1" d="M3.05,12.69l.26.26-.26.26L2.79,13l.26-.26m0-1.15L1.64,13l1.41,1.41L4.46,13,3.05,11.54Z"/><path class="cls-1" d="M1.18,7.82v.36H.82V7.82h.36M2,7H0V9H2V7Z"/><path class="cls-1" d="M3.05,2.79l.26.26-.26.26-.26-.26.26-.26m0-1.15L1.64,3.05,3.05,4.46,4.46,3.05,3.05,1.64Z"/></svg>