<svg id="Capa_1" data-name="Capa 1" xmlns="http://www.w3.org/2000/svg" viewBox="0 0 32 32"><defs><style>.cls-1{fill:#fff;}</style></defs><polygon class="cls-1" points="17 3 15 3 15 6 17 6 17 3 17 3"/><polygon class="cls-1" points="24.48 6.1 22.36 8.22 23.78 9.64 25.9 7.51 24.48 6.1 24.48 6.1"/><polygon class="cls-1" points="29 15 26 15 26 17 29 17 29 15 29 15"/><polygon class="cls-1" points="23.78 22.36 22.36 23.78 24.48 25.9 25.9 24.48 23.78 22.36 23.78 22.36"/><polygon class="cls-1" points="17 26 15 26 15 29 17 29 17 26 17 26"/><polygon class="cls-1" points="8.22 22.36 6.1 24.48 7.51 25.9 9.64 23.78 8.22 22.36 8.22 22.36"/><polygon class="cls-1" points="6 15 3 15 3 17 6 17 6 15 6 15"/><polygon class="cls-1" points="7.51 6.1 6.1 7.51 8.22 9.64 9.64 8.22 7.51 6.1 7.51 6.1"/><path class="cls-1" d="M16,9a7,7,0,1,1-7,7,7,7,0,0,1,7-7m0-2a9,9,0,1,0,9,9,9,9,0,0,0-9-9Z"/></svg>